<?xml version="1.0" encoding="utf-8"?>
<!-- Generator: Adobe Illustrator 18.0.0, SVG Export Plug-In . SVG Version: 6.00 Build 0)  -->
<!DOCTYPE svg PUBLIC "-//W3C//DTD SVG 1.1//EN" "http://www.w3.org/Graphics/SVG/1.1/DTD/svg11.dtd">
<svg version="1.1" id="Layer_1" xmlns="http://www.w3.org/2000/svg" xmlns:xlink="http://www.w3.org/1999/xlink" x="0px" y="0px"
	 viewBox="0 0 84.3 35.5" enable-background="new 0 0 84.3 35.5" xml:space="preserve">
<g>
	<g>
		<path fill="#FFFFFF" d="M29.4,22.5c-1,0.4-1.8,0.9-2.7,1.1c-0.9,0.3-2.1,0.6-2.6,0c-1.3-1.8-2.4-0.6-3.6,0c-2,0.8-3.2-0.3-4.2-1.9
			c-0.9,0.8-1.7,1.6-2.8,1.9c-0.7,0.2-1.7,0.7-2.3,0.1c-1.7-1.9-3.2-0.5-4.8-0.1c-3.9,1.1-6.8-1.4-6.4-5.4c0.2-2,0.8-3.8,2.2-5.3
			c1.5-1.6,3.8-1.8,5.3-0.6c1.4,1.2,1.4,2.9,0,4.9c-0.8,1.2-2,1.8-3.2,2.5c-0.3,0.2-0.8,0.2-0.7,0.7c0.1,0.4,0.5,0.6,0.9,0.7
			c1.5,0.4,4.2-1.1,4.7-2.6c0.9-2.9,2.1-5.5,5.5-6.3c0.7-0.2,0.6-0.7,0.7-1.2c0.4-2.3,0.8-4.6,1.8-6.8c0.4-0.8,0.8-1.6,1.4-2.3
			c0.9-1.1,2-2.1,3.5-1.6c1.5,0.5,1.5,2,1.6,3.3c0.2,3.7-1.3,6.9-2.7,10.1c-0.6,1.4-1.5,2.8-1.8,4.3c-0.2,1.1-0.6,2.3,0.5,3
			c0.7,0.5,3.2-1.2,3.5-2.3c0.5-1.8,1-3.5,1.4-5.3c0.2-0.7,0.4-1.2,1.1-1.5c0.6-0.2,1.3-0.6,1.8-0.1c0.5,0.4,0.3,1.1,0.1,1.6
			c-0.5,1.8-1,3.5-1.3,5.3c-0.2,0.9-0.8,2.1,0.5,2.7c0.8,0.4,2.8-1.5,2.9-2.6c0.2-2.7,0.7-5.3,1.2-7.9c0.5-2.4,1.2-4.7,2.4-6.8
			c0.4-0.6,0.8-1.2,1.3-1.7c1.1-1.2,2.4-1.9,4-1c1.5,0.8,1.6,2.3,1.2,3.8c-0.8,3.3-2.5,6.3-4.3,9.2c-0.4,0.7-1.6,1.3-1,2.1
			c0.5,0.7,1.7,0.3,2.6,0.1c1.3-0.2,2.1-0.7,2.4-2.1c0.1-0.6,0.4-1.2,0.7-1.8c0.5-0.9,1.4-1.3,2.3-0.9c0.9,0.4,0.4,1.2,0.2,1.9
			c-0.4,2-0.8,4-1,6c-0.1,0.7-0.2,1.7,0.8,2c1,0.2,1.4-0.7,1.6-1.4c0.5-1.7,0.9-3.5,1.3-5.3c0.2-0.8,0.2-1.7,0.9-2.3
			c0.6-0.6,1.3-1,2.1-0.7c0.9,0.4,0.5,1.2,0.4,1.9c-0.4,2.5-0.9,5-1.3,7.5c-0.1,0.4-0.1,0.9-0.1,1.5c1.9-0.9,2.8-2.6,4.2-4
			c0.9,1.5,1,2.9-0.6,3.9c-3.1,1.9-4.8,4.5-4.7,8.3c0,1.4-0.7,2.8-1.8,3.8c-1.3,1.2-3.5,1.5-4.9,0.4c-1.5-1.1-1.2-2.6-0.7-4.1
			c0.9-2.3,2.6-4.2,4.4-6c0.4-0.5,1.1-0.8,0.9-1.7c-0.4-0.2-0.7,0.2-1.1,0.4c-2.3,0.9-4.6-0.2-4.6-2.8c0-2.1-0.6-2.4-2.4-1.8
			C36,19,35.7,19,35.2,19c1.4,2.6,2.1,5.2,1.2,8.1c-0.8,2.6-2.2,4.4-3.9,4.3c-1.7-0.1-2.9-1.9-3.1-4.8C29.3,25.3,29.4,24,29.4,22.5z
			 M32.7,18.2c-0.7,3.1-0.7,6.3-0.5,9.4c0,0.4,0.1,1,0.6,1.1c0.6,0.1,0.8-0.3,0.9-0.8C34.4,24.6,34.4,21.3,32.7,18.2z M34,12.6
			c0.7-1.2,1.5-2.4,2.1-3.6c0.8-1.4,1.5-2.8,1.8-4.3C38,4.2,38,3.5,37.3,3.3c-0.5-0.1-0.9,0.1-1.1,0.6C34.9,6.6,33.8,9.4,34,12.6z
			 M18.6,13.5c1.4-2.8,2.5-5.7,2.8-8.9c0.1-0.6,0.3-1.5-0.5-1.7c-0.8-0.2-1,0.7-1.2,1.3C18.8,7.3,18.3,10.4,18.6,13.5z M15.2,14.1
			c-2.3,1.4-2.9,3.4-3.1,5.6c0,0.5-0.2,1,0.5,1.3c0.5,0.2,1,0.2,1.5-0.2c0.8-0.6,1.4-1.4,1.4-2.5C15.5,17,15.3,15.6,15.2,14.1z
			 M44.2,27.4c-1.6,1-2.1,2.7-2.8,4.2c-0.2,0.5-0.6,1.2,0.2,1.5c0.6,0.2,1.1-0.3,1.4-0.8C43.7,30.7,44.1,29.2,44.2,27.4z M6.3,15
			c0-0.4-0.1-0.8-0.5-1c-0.9-0.4-1.5,0.2-1.9,0.8c-0.5,0.9-1.1,1.8-0.8,2.9c0,0.1,0.2,0.1,0.3,0.1C4.5,17.9,6.3,16,6.3,15z"/>
		<path fill="#6790DB" d="M74.2,13.1c0,1.9,0.1,3.8,0,5.7c-0.1,3.3-2.1,5.3-5,5.3c-3.2,0.1-5.3-1.7-5.5-5.1
			c-0.2-3.8-0.2-7.7-0.1-11.5c0.1-3.4,2-5.2,4.8-5.4c3.5-0.2,5.6,1.6,5.8,5.1C74.3,9.1,74.2,11.1,74.2,13.1
			C74.2,13.1,74.2,13.1,74.2,13.1z M66.6,12.9C66.6,12.9,66.6,12.9,66.6,12.9c0,2.1,0,4.3,0.1,6.4c0.1,1.2,0.6,2.3,2.1,2.4
			c1.6,0.1,2.3-1,2.4-2.3c0.4-4.2,0.3-8.5,0-12.7c-0.1-1.4-0.8-2.5-2.5-2.3c-1.7,0.1-2,1.3-2.1,2.6C66.5,8.9,66.6,10.9,66.6,12.9z"
			/>
		<path fill="#6790DB" d="M84.3,13c0,3.1,0,6.1,0,9.2c0,1.1-0.3,1.7-1.5,1.6c-1.2,0-1.6-0.5-1.5-1.6c0.1-4.7,0-9.4,0.1-14.1
			c0-1.6-0.4-2.3-2.1-1.7c-0.5,0.2-1.5,0.8-1.6-0.5c-0.1-0.8-0.1-1.5,1-1.7c1.2-0.2,2.1-1,3.1-1.6c1.6-1,2.6-0.4,2.6,1.4
			C84.3,7,84.3,10,84.3,13C84.3,13,84.3,13,84.3,13z"/>
		<path fill="#6790DB" d="M58.8,13c0,2.9,0,5.8,0,8.6c0,1,0.4,2.3-1.5,2.3c-2,0-1.6-1.3-1.6-2.4c0-4.6-0.1-9.2,0-13.7
			c0-1.4-0.3-1.8-1.7-1.5c-0.6,0.1-1.5,1-1.9-0.3c-0.4-1.3,0.4-1.7,1.5-2c0.9-0.2,1.7-0.7,2.4-1.3c0.7-0.6,1.6-0.7,2.4-0.4
			c0.8,0.4,0.4,1.2,0.4,1.8C58.8,7.1,58.8,10,58.8,13C58.8,13,58.8,13,58.8,13z"/>
		<path fill="#FFFFFF" d="M27.8,6c1.2,0.1,2.1,0.5,2,1.9c-0.1,1.5-1,2.2-2.4,2.2c-1.2,0-2.1-0.6-2-1.8C25.4,6.7,26.4,6,27.8,6z"/>
	</g>
</g>
</svg>
